<svg width="28" height="26" viewBox="0 0 28 26" fill="none" xmlns="http://www.w3.org/2000/svg">
<path d="M13.52 0C6.04915 0 0 5.8299 0 13C0 20.1701 6.06309 26 13.52 26C20.9769 26 27.04 20.1701 27.04 13C27.04 5.8299 20.9908 0 13.52 0ZM17.2415 8.51031H15.9731C15.9731 8.51031 14.7466 8.75155 14.7466 9.62268V11.4186H17.1997L16.8094 13.7505H14.7744C14.7744 13.7505 14.8581 19.8082 14.8162 19.7546H12.0426V13.8175H9.79852V11.4186H11.9729V8.77835C11.9729 8.77835 12.3213 5.40103 17.2415 6.4866V8.51031Z" fill="#1868B3"/>
</svg>
