<svg width="28" height="26" viewBox="0 0 28 26" fill="none" xmlns="http://www.w3.org/2000/svg">
<path d="M13.52 0C6.06309 0 0 5.81649 0 13C0 20.1835 6.06309 26 13.52 26C20.9769 26 27.04 20.1701 27.04 13C27.04 5.8299 20.9908 0 13.52 0ZM8.79497 8.01443H18.259C19.0256 8.01443 19.6667 8.55051 19.7782 9.27423L13.5339 13.1608L7.28965 9.27423C7.40116 8.55051 8.04231 8.01443 8.80891 8.01443H8.79497ZM19.7922 16.5247C19.7922 17.3423 19.0953 18.0124 18.245 18.0124H8.78103C7.93081 18.0124 7.2339 17.3423 7.2339 16.5247V10.5608L13.2831 14.3268C13.4224 14.4072 13.6036 14.4072 13.743 14.3268L19.7922 10.5608V16.5247Z" fill="#1868B3"/>
</svg>
