<svg width="28" height="26" viewBox="0 0 28 26" fill="none" xmlns="http://www.w3.org/2000/svg">
<path d="M13.52 0C6.05822 0 0 5.81257 0 13C0 20.1874 6.05822 26 13.52 26C20.9818 26 27.04 20.1738 27.04 13C27.04 5.82618 20.9818 0 13.52 0ZM19.9076 10.155V11.8021C19.0913 11.8021 18.3036 11.6524 17.5588 11.3529C17.0862 11.1623 16.6279 10.9173 16.2269 10.6178V15.6681C16.2269 16.8115 15.7542 17.8733 14.9092 18.6764C14.2075 19.3298 13.3338 19.7518 12.3742 19.888C12.1451 19.9152 11.9159 19.9424 11.6868 19.9424C10.6556 19.9424 9.69602 19.6293 8.89399 19.044C8.75077 18.9351 8.60755 18.8126 8.46432 18.6901C7.53339 17.8188 7.06077 16.6346 7.13238 15.3958C7.18966 14.4429 7.59068 13.5445 8.26382 12.8366C9.13746 11.8974 10.3692 11.3801 11.6868 11.3801C11.9159 11.3801 12.1451 11.3937 12.3742 11.4346V13.7215C12.1594 13.6534 11.9303 13.6126 11.7011 13.6126C10.4981 13.6126 9.52416 14.5382 9.53848 15.6817C9.53848 16.4168 9.96813 17.0565 10.584 17.4105C10.8704 17.5738 11.2142 17.6827 11.5722 17.6963C11.8586 17.7099 12.1164 17.6691 12.3742 17.601C13.2336 17.3288 13.8494 16.5665 13.8494 15.6545V12.2785V6.11204H16.2269C16.2269 6.32984 16.2555 6.54764 16.2985 6.76545C16.4847 7.62304 16.9859 8.37173 17.6877 8.87539C18.3036 9.311 19.0769 9.58325 19.9076 9.58325V10.1958V10.155Z" fill="#1868B3"/>
</svg>
