<svg width="28" height="26" viewBox="0 0 28 26" fill="none" xmlns="http://www.w3.org/2000/svg">
<path d="M12.718 10.2226C12.4172 9.96399 11.9589 10.1954 11.9589 10.6174V15.3954C11.9589 15.8174 12.4172 16.0488 12.718 15.7902L15.5537 13.408C15.7972 13.2038 15.7972 12.8226 15.5537 12.6184L12.718 10.2362V10.2226Z" fill="#1868B3"/>
<path d="M13.52 0C6.05822 0 0 5.81256 0 13C0 20.1874 6.05822 26 13.52 26C20.9818 26 27.04 20.1738 27.04 13C27.04 5.82618 20.9818 0 13.52 0ZM20.2227 14.4565C20.2227 16.444 18.7189 18.0503 16.857 18.0503H10.1543C8.29246 18.0503 6.78864 16.444 6.78864 14.4565V11.5298C6.78864 9.54241 8.29246 7.93613 10.1543 7.93613H16.857C18.7189 7.93613 20.2227 9.54241 20.2227 11.5298V14.4565Z" fill="#1868B3"/>
</svg>
